
  <svg xmlns="http://www.w3.org/2000/svg" width="1600" height="1000" viewBox="0 0 1600 1000">
    <defs>
      <linearGradient id="bg" x1="0" y1="0" x2="1" y2="1">
        <stop offset="0%" stop-color="#08111f" />
        <stop offset="52%" stop-color="#0d1b2a" />
        <stop offset="100%" stop-color="#11263a" />
      </linearGradient>
      <linearGradient id="glow" x1="0" y1="0" x2="1" y2="1">
        <stop offset="0%" stop-color="#ff7b7b" stop-opacity="0.30" />
        <stop offset="100%" stop-color="#6bb4ff" stop-opacity="0.06" />
      </linearGradient>
      <filter id="shadow" x="-20%" y="-20%" width="140%" height="140%">
        <feDropShadow dx="0" dy="18" stdDeviation="28" flood-color="#030813" flood-opacity="0.45" />
      </filter>
    </defs>

    <rect width="1600" height="1000" fill="url(#bg)" />
    <circle cx="1270" cy="180" r="230" fill="url(#glow)" />
    <circle cx="250" cy="820" r="180" fill="#ff7b7b" opacity="0.08" />

    <rect x="72" y="66" width="1456" height="868" rx="34" fill="#0b1420" stroke="#223248" filter="url(#shadow)" />
    <rect x="72" y="66" width="1456" height="78" rx="34" fill="#0e1825" />
    <circle cx="118" cy="105" r="10" fill="#ff6d7a" />
    <circle cx="148" cy="105" r="10" fill="#ffcf66" />
    <circle cx="178" cy="105" r="10" fill="#62d394" />
    <text x="228" y="114" fill="#edf3ff" font-size="24" font-weight="700" font-family="SF Pro Text, Inter, Arial, sans-serif">Explain Current Grammar</text>
    <text x="228" y="140" fill="#9db2c9" font-size="16" font-family="SF Pro Text, Inter, Arial, sans-serif">AI commands stop immediately when no supported VS Code model environment is available.</text>
    <text x="1402" y="112" fill="#7e95ad" font-size="16" text-anchor="end" font-family="SF Pro Text, Inter, Arial, sans-serif">DSLForge • Langium v0.1</text>

    
      
    <rect x="98" y="166" width="314" height="720" rx="26" fill="#101a28" stroke="#24364f" />
    <text x="128" y="208" fill="#7e95ad" font-size="16" font-weight="700" font-family="SF Pro Text, Inter, Arial, sans-serif">WORKSPACE</text>
    
      <rect x="110" y="192" width="286" height="40" rx="14" fill="#13253a" />
      <circle cx="136" cy="212" r="5" fill="#ff7b7b" />
      <text x="156" y="218" fill="#edf3ff" font-size="19" font-family="SF Pro Text, Inter, Arial, sans-serif">src/language/main.langium</text>
      <rect x="110" y="244" width="286" height="40" rx="14" fill="transparent" />
      <circle cx="136" cy="264" r="5" fill="#5fd1d8" />
      <text x="156" y="270" fill="#9db2c9" font-size="19" font-family="SF Pro Text, Inter, Arial, sans-serif">src/language/shared.langium</text>
      <rect x="110" y="296" width="286" height="40" rx="14" fill="transparent" />
      <circle cx="136" cy="316" r="5" fill="#5fd1d8" />
      <text x="156" y="322" fill="#9db2c9" font-size="19" font-family="SF Pro Text, Inter, Arial, sans-serif">src/language/tokens.langium</text>
      <rect x="110" y="348" width="286" height="40" rx="14" fill="transparent" />
      <circle cx="136" cy="368" r="5" fill="#5fd1d8" />
      <text x="156" y="374" fill="#9db2c9" font-size="19" font-family="SF Pro Text, Inter, Arial, sans-serif">langium-config.json</text>
      <rect x="110" y="400" width="286" height="40" rx="14" fill="transparent" />
      <circle cx="136" cy="420" r="5" fill="#5fd1d8" />
      <text x="156" y="426" fill="#9db2c9" font-size="19" font-family="SF Pro Text, Inter, Arial, sans-serif">Output: DSLForge</text>
    <text x="128" y="846" fill="#7e95ad" font-size="15" font-family="SF Pro Text, Inter, Arial, sans-serif">AI commands never fake a fallback result</text>
  

      <rect x="438" y="166" width="1030" height="214" rx="28" fill="#251116" stroke="#60303d" />
      <text x="474" y="214" fill="#ffb8c1" font-size="16" font-weight="700" font-family="SF Pro Text, Inter, Arial, sans-serif">AI GATE</text>
      <text x="474" y="264" fill="#fff0f3" font-size="30" font-weight="700" font-family="SF Pro Text, Inter, Arial, sans-serif"><tspan x="474" dy="0">DSLForge requires GitHub Copilot or another supported</tspan><tspan x="474" dy="43.5">VS Code model environment to run Explain Current Grammar.</tspan><tspan x="474" dy="43.5">No chat models are currently available.</tspan></text>
      
    <rect x="474" y="314" width="177" height="38" rx="19" fill="#ffd3da" />
    <text x="562.5" y="339" text-anchor="middle" fill="#5f1220" font-size="18" font-weight="700" font-family="SF Pro Text, Inter, Arial, sans-serif">Open Settings</text>
  
      
    <rect x="632" y="314" width="155" height="38" rx="19" fill="#381821" />
    <text x="709.5" y="339" text-anchor="middle" fill="#fff0f3" font-size="18" font-weight="700" font-family="SF Pro Text, Inter, Arial, sans-serif">Show Output</text>
  

      <rect x="438" y="406" width="508" height="480" rx="28" fill="#101a28" stroke="#24364f" />
      <text x="474" y="450" fill="#7e95ad" font-size="16" font-weight="700" font-family="SF Pro Text, Inter, Arial, sans-serif">OUTPUT • DSLForge AI Gate</text>
      <text x="474" y="502" fill="#d7e5ff" font-size="20" font-weight="400" font-family="SFMono-Regular, Menlo, Consolas, monospace"><tspan x="474" dy="0">status: missing_model</tspan><tspan x="474" dy="29">available models: 0</tspan><tspan x="474" dy="29">selected model: none</tspan><tspan x="474" dy="29">&#160;</tspan><tspan x="474" dy="29">message: DSLForge requires GitHub Copilot or another</tspan><tspan x="474" dy="29">supported VS Code model environment to run</tspan><tspan x="474" dy="29">Explain Current Grammar. No chat models are</tspan><tspan x="474" dy="29">currently available.</tspan></text>

      <rect x="972" y="406" width="496" height="480" rx="28" fill="#101a28" stroke="#24364f" />
      <text x="1008" y="450" fill="#7e95ad" font-size="16" font-weight="700" font-family="SF Pro Text, Inter, Arial, sans-serif">WHY THIS MATTERS</text>
      <text x="1008" y="510" fill="#edf3ff" font-size="22" font-weight="400" font-family="SF Pro Text, Inter, Arial, sans-serif"><tspan x="1008" dy="0">• No markdown preview opens when access is unavailable.</tspan><tspan x="1008" dy="31.9">• No placeholder explanation is fabricated.</tspan><tspan x="1008" dy="31.9">• The user sees setup or sign-in guidance instead.</tspan><tspan x="1008" dy="31.9">&#160;</tspan><tspan x="1008" dy="31.9">AI-backed commands</tspan><tspan x="1008" dy="31.9">• Explain Current Grammar</tspan><tspan x="1008" dy="31.9">• Create DSL Scaffold</tspan><tspan x="1008" dy="31.9">• Generate Sample DSL</tspan></text>
      
    <rect x="1008" y="768" width="210" height="38" rx="19" fill="#4a1922" />
    <text x="1113" y="793" text-anchor="middle" fill="#ffd3da" font-size="18" font-weight="700" font-family="SF Pro Text, Inter, Arial, sans-serif">NO FAKE FALLBACK</text>
  
    
  </svg>