
  <svg xmlns="http://www.w3.org/2000/svg" width="1600" height="1000" viewBox="0 0 1600 1000">
    <defs>
      <linearGradient id="bg" x1="0" y1="0" x2="1" y2="1">
        <stop offset="0%" stop-color="#08111f" />
        <stop offset="52%" stop-color="#0d1b2a" />
        <stop offset="100%" stop-color="#11263a" />
      </linearGradient>
      <linearGradient id="glow" x1="0" y1="0" x2="1" y2="1">
        <stop offset="0%" stop-color="#62d394" stop-opacity="0.30" />
        <stop offset="100%" stop-color="#6bb4ff" stop-opacity="0.06" />
      </linearGradient>
      <filter id="shadow" x="-20%" y="-20%" width="140%" height="140%">
        <feDropShadow dx="0" dy="18" stdDeviation="28" flood-color="#030813" flood-opacity="0.45" />
      </filter>
    </defs>

    <rect width="1600" height="1000" fill="url(#bg)" />
    <circle cx="1270" cy="180" r="230" fill="url(#glow)" />
    <circle cx="250" cy="820" r="180" fill="#62d394" opacity="0.08" />

    <rect x="72" y="66" width="1456" height="868" rx="34" fill="#0b1420" stroke="#223248" filter="url(#shadow)" />
    <rect x="72" y="66" width="1456" height="78" rx="34" fill="#0e1825" />
    <circle cx="118" cy="105" r="10" fill="#ff6d7a" />
    <circle cx="148" cy="105" r="10" fill="#ffcf66" />
    <circle cx="178" cy="105" r="10" fill="#62d394" />
    <text x="228" y="114" fill="#edf3ff" font-size="24" font-weight="700" font-family="SF Pro Text, Inter, Arial, sans-serif">Validate Current Grammar</text>
    <text x="228" y="140" fill="#9db2c9" font-size="16" font-family="SF Pro Text, Inter, Arial, sans-serif">Configured command path selected first, without AI involvement.</text>
    <text x="1402" y="112" fill="#7e95ad" font-size="16" text-anchor="end" font-family="SF Pro Text, Inter, Arial, sans-serif">DSLForge • Langium v0.1</text>

    
      
    <rect x="98" y="166" width="314" height="720" rx="26" fill="#101a28" stroke="#24364f" />
    <text x="128" y="208" fill="#7e95ad" font-size="16" font-weight="700" font-family="SF Pro Text, Inter, Arial, sans-serif">WORKSPACE</text>
    
      <rect x="110" y="192" width="286" height="40" rx="14" fill="#13253a" />
      <circle cx="136" cy="212" r="5" fill="#62d394" />
      <text x="156" y="218" fill="#edf3ff" font-size="19" font-family="SF Pro Text, Inter, Arial, sans-serif">src/language/configured.langium</text>
      <rect x="110" y="244" width="286" height="40" rx="14" fill="transparent" />
      <circle cx="136" cy="264" r="5" fill="#5fd1d8" />
      <text x="156" y="270" fill="#9db2c9" font-size="19" font-family="SF Pro Text, Inter, Arial, sans-serif">.vscode/settings.json</text>
      <rect x="110" y="296" width="286" height="40" rx="14" fill="transparent" />
      <circle cx="136" cy="316" r="5" fill="#5fd1d8" />
      <text x="156" y="322" fill="#9db2c9" font-size="19" font-family="SF Pro Text, Inter, Arial, sans-serif">package.json</text>
      <rect x="110" y="348" width="286" height="40" rx="14" fill="transparent" />
      <circle cx="136" cy="368" r="5" fill="#5fd1d8" />
      <text x="156" y="374" fill="#9db2c9" font-size="19" font-family="SF Pro Text, Inter, Arial, sans-serif">scripts/validate-configured.js</text>
      <rect x="110" y="400" width="286" height="40" rx="14" fill="transparent" />
      <circle cx="136" cy="420" r="5" fill="#5fd1d8" />
      <text x="156" y="426" fill="#9db2c9" font-size="19" font-family="SF Pro Text, Inter, Arial, sans-serif">Problems (1)</text>
      <rect x="110" y="452" width="286" height="40" rx="14" fill="transparent" />
      <circle cx="136" cy="472" r="5" fill="#5fd1d8" />
      <text x="156" y="478" fill="#9db2c9" font-size="19" font-family="SF Pro Text, Inter, Arial, sans-serif">Output: DSLForge</text>
    <text x="128" y="846" fill="#7e95ad" font-size="15" font-family="SF Pro Text, Inter, Arial, sans-serif">Priority: setting → package.json script → guidance</text>
  

      <rect x="438" y="166" width="646" height="432" rx="28" fill="#101a28" stroke="#24364f" />
      <text x="474" y="214" fill="#7e95ad" font-size="16" font-weight="700" font-family="SF Pro Text, Inter, Arial, sans-serif">ACTIVE GRAMMAR</text>
      
    <rect x="470" y="240" width="582" height="308" rx="24" fill="#0c1623" stroke="#213247" />
    <text x="494" y="284" fill="#62d394" font-size="20" font-weight="400" font-family="SFMono-Regular, Menlo, Consolas, monospace"><tspan x="494" dy="0">grammar Configured</tspan></text><text x="494" y="312" fill="#d7e5ff" font-size="20" font-weight="400" font-family="SFMono-Regular, Menlo, Consolas, monospace"><tspan x="494" dy="0"></tspan></text><text x="494" y="340" fill="#d7e5ff" font-size="20" font-weight="400" font-family="SFMono-Regular, Menlo, Consolas, monospace"><tspan x="494" dy="0">entry Model:</tspan></text><text x="494" y="368" fill="#d7e5ff" font-size="20" font-weight="400" font-family="SFMono-Regular, Menlo, Consolas, monospace"><tspan x="494" dy="0">  items+=Entity*;</tspan></text><text x="494" y="396" fill="#d7e5ff" font-size="20" font-weight="400" font-family="SFMono-Regular, Menlo, Consolas, monospace"><tspan x="494" dy="0"></tspan></text><text x="494" y="424" fill="#d7e5ff" font-size="20" font-weight="400" font-family="SFMono-Regular, Menlo, Consolas, monospace"><tspan x="494" dy="0">Entity:</tspan></text><text x="494" y="452" fill="#d7e5ff" font-size="20" font-weight="400" font-family="SFMono-Regular, Menlo, Consolas, monospace"><tspan x="494" dy="0">  &quot;entity&quot; name=ID;</tspan></text>
  

      <rect x="1112" y="166" width="356" height="242" rx="28" fill="#101a28" stroke="#24364f" />
      <text x="1142" y="214" fill="#7e95ad" font-size="16" font-weight="700" font-family="SF Pro Text, Inter, Arial, sans-serif">RESULT</text>
      
    <rect x="1142" y="236" width="112" height="38" rx="19" fill="#62d394" />
    <text x="1198" y="261" text-anchor="middle" fill="#08111f" font-size="18" font-weight="700" font-family="SF Pro Text, Inter, Arial, sans-serif">NON-AI</text>
  
      
    <rect x="1268" y="236" width="112" height="38" rx="19" fill="#15384f" />
    <text x="1324" y="261" text-anchor="middle" fill="#6bb4ff" font-size="18" font-weight="700" font-family="SF Pro Text, Inter, Arial, sans-serif">CFG001</text>
  
      <text x="1142" y="320" fill="#edf3ff" font-size="21" font-weight="400" font-family="SF Pro Text, Inter, Arial, sans-serif"><tspan x="1142" dy="0">DSLForge validation succeeded using</tspan><tspan x="1142" dy="30.45">the user-configured validation command</tspan><tspan x="1142" dy="30.45">from dslforge.validation.command.</tspan><tspan x="1142" dy="30.45"></tspan><tspan x="1142" dy="30.45">1 error(s), 0 warning(s).</tspan></text>

      <rect x="1112" y="430" width="356" height="170" rx="28" fill="#101a28" stroke="#24364f" />
      <text x="1142" y="474" fill="#7e95ad" font-size="16" font-weight="700" font-family="SF Pro Text, Inter, Arial, sans-serif">QUICK ACTIONS</text>
      
    <rect x="1142" y="500" width="177" height="38" rx="19" fill="#14304d" />
    <text x="1230.5" y="525" text-anchor="middle" fill="#6bb4ff" font-size="18" font-weight="700" font-family="SF Pro Text, Inter, Arial, sans-serif">Show Problems</text>
  
      
    <rect x="1288" y="500" width="155" height="38" rx="19" fill="#14304d" />
    <text x="1365.5" y="525" text-anchor="middle" fill="#6bb4ff" font-size="18" font-weight="700" font-family="SF Pro Text, Inter, Arial, sans-serif">Show Output</text>
  
      
    <rect x="1142" y="552" width="298" height="38" rx="19" fill="#17273a" />
    <text x="1291" y="577" text-anchor="middle" fill="#edf3ff" font-size="18" font-weight="700" font-family="SF Pro Text, Inter, Arial, sans-serif">Open Validation Settings</text>
  

      <rect x="438" y="624" width="1030" height="262" rx="28" fill="#101a28" stroke="#24364f" />
      <text x="474" y="668" fill="#7e95ad" font-size="16" font-weight="700" font-family="SF Pro Text, Inter, Arial, sans-serif">OUTPUT • DSLForge</text>
      <text x="474" y="718" fill="#d7e5ff" font-size="20" font-weight="400" font-family="SFMono-Regular, Menlo, Consolas, monospace"><tspan x="474" dy="0">DSLForge Validation Report</tspan><tspan x="474" dy="29">source: user-configured</tspan><tspan x="474" dy="29">detail: Using the user-configured validation command from dslforge.validation.command.</tspan><tspan x="474" dy="29">rationale: Validation source priority matched the workspace setting first.</tspan><tspan x="474" dy="29">src/language/configured.langium:5:3 error CFG001: Configured command path selected by DSLForge</tspan></text>
    
  </svg>